# xmcd
#
# Track frame offsets: 
#        150
#        17462
#        38237
#        53537
#        68087
#        77460
#        93510
#        113012
#        125162
#        140237
#        154637
#        170537
#
# Disc length: 2587 seconds
#
# Revision: 4
# Processed by: cddbd v1.5.2PL0 Copyright (c) Steve Scherf et al.
# Submitted via: ExactAudioCopy v1.0b1
#
DISCID=950a190c
DTITLE=Sathima Bea Benjamin - A Morning In Paris
DYEAR=1963
DGENRE=Jazz
TTITLE0=Darn That Dream
TTITLE1=I Got It Bad And That Ain't Good
TTITLE2=I Could Write A Book
TTITLE3=I Should Care
TTITLE4=Spring Will Be A Little Late This Year
TTITLE5=Solitude
TTITLE6=The Man I Love
TTITLE7=Your Love Has Faded
TTITLE8=I'm Glad There Is You
TTITLE9=Soon
TTITLE10=Lover Man
TTITLE11=A Nightingale Sang In Berkeley Square
EXTD=YEAR: 1963
EXTT0=
EXTT1=
EXTT2=
EXTT3=
EXTT4=
EXTT5=
EXTT6=
EXTT7=
EXTT8=
EXTT9=
EXTT10=
EXTT11=
PLAYORDER=
